<svg viewBox="0 0 1200 630" xmlns="http://www.w3.org/2000/svg">
  <rect width="1200" height="630" fill="#4F46E5"/>
  <circle cx="60" cy="60" r="18" fill="#818CF8" fill-opacity="0.6"/>
  <circle cx="130" cy="40" r="10" fill="#A5B4FC" fill-opacity="0.5"/>
  <circle cx="40" cy="130" r="10" fill="#C7D2FE" fill-opacity="0.4"/>
  <circle cx="1140" cy="60" r="22" fill="#818CF8" fill-opacity="0.5"/>
  <circle cx="1080" cy="30" r="12" fill="#A5B4FC" fill-opacity="0.4"/>
  <circle cx="1160" cy="140" r="14" fill="#C7D2FE" fill-opacity="0.4"/>
  <circle cx="1120" cy="580" r="20" fill="#818CF8" fill-opacity="0.5"/>
  <circle cx="80" cy="570" r="16" fill="#A5B4FC" fill-opacity="0.4"/>
  <circle cx="200" cy="600" r="10" fill="#C7D2FE" fill-opacity="0.3"/>
  <circle cx="1000" cy="610" r="12" fill="#C7D2FE" fill-opacity="0.3"/>
  <polygon points="950,80 960,100 980,100 965,115 970,135 950,122 930,135 935,115 920,100 940,100" fill="#FCD34D" fill-opacity="0.8"/>
  <polygon points="220,540 227,558 246,558 231,570 236,588 220,577 204,588 209,570 194,558 213,558" fill="#FCD34D" fill-opacity="0.7"/>
  <polygon points="1050,480 1055,494 1070,494 1058,502 1062,516 1050,508 1038,516 1042,502 1030,494 1045,494" fill="#F9A8D4" fill-opacity="0.8"/>
  <rect x="80" y="100" width="1040" height="430" rx="24" fill="#ffffff" fill-opacity="0.12"/>
  <rect x="80" y="100" width="16" height="430" rx="8" fill="#FCD34D"/>
  <rect x="130" y="160" width="90" height="110" rx="12" fill="#FCD34D"/>
  <rect x="148" y="178" width="54" height="6" rx="3" fill="#4F46E5" fill-opacity="0.5"/>
  <rect x="148" y="192" width="54" height="6" rx="3" fill="#4F46E5" fill-opacity="0.5"/>
  <rect x="148" y="206" width="38" height="6" rx="3" fill="#4F46E5" fill-opacity="0.5"/>
  <rect x="148" y="220" width="46" height="6" rx="3" fill="#4F46E5" fill-opacity="0.5"/>
  <rect x="130" y="160" width="8" height="110" rx="4" fill="#4F46E5" fill-opacity="0.3"/>
  <text x="140" y="330" font-family="sans-serif" font-size="78" font-weight="700" fill="#ffffff" letter-spacing="-2">マンガ購入管理</text>
  <rect x="140" y="360" width="500" height="50" rx="25" fill="#818CF8" fill-opacity="0.5"/>
  <text x="165" y="393" font-family="sans-serif" font-size="28" fill="#ffffff">みんなで使えるマンガ管理アプリ</text>
  <rect x="140" y="440" width="420" height="44" rx="22" fill="#ffffff" fill-opacity="0.15"/>
  <text x="164" y="469" font-family="sans-serif" font-size="22" fill="#ffffff" fill-opacity="0.8">comics-manager.vercel.app</text>
  <rect x="850" y="160" width="60" height="300" rx="8" fill="#F472B6" fill-opacity="0.85"/>
  <rect x="920" y="200" width="60" height="260" rx="8" fill="#34D399" fill-opacity="0.85"/>
  <rect x="990" y="180" width="60" height="280" rx="8" fill="#FCD34D" fill-opacity="0.85"/>
  <rect x="860" y="455" width="195" height="10" rx="5" fill="#ffffff" fill-opacity="0.2"/>
</svg>
